<svg data-name="Layer 1" xmlns="http://www.w3.org/2000/svg" width="923.112" height="91.22mm" viewBox="0 0 692.34 258.57"><title>logo</title><g fill="#2f409a"><path d="M148 128.74V66.26c0-9.16-3.92-17.34-18-17.35-6.54 0-11.78 1.14-17.17 4.41v75.41H98.42V6.2L112.85.32v44.82c7.37-3.76 13.74-5.39 20.28-5.39 22.4 0 29.27 13.59 29.26 26v63zM216.65 130.4c-24 0-34.49-19.8-34.48-45.65 0-26.33 10.64-45.79 34.36-45.79C240.72 39 251 58.44 251 84.77c0 25.85-10.47 45.63-34.35 45.63zm0-82.28c-16.85 0-20.13 18.8-20.13 36.63s3.58 35.66 20.1 35.67c16.84 0 20-18 20-35.65s-3.09-36.64-19.93-36.65zM305.32 50.11c-7.19-2.11-15.32-1.48-20.11 1.63v77h-14.42V45.32c8.67-4.41 17-6.7 37.94-6.21zM333.6 90.2c1.63 20 10.94 29.77 26.81 29.78 10 0 17.17-2.45 21.75-5.07l3.76 9.49c-5.41 3.27-14.73 6-26.66 6-23.06 0-39.24-14.57-39.23-46C320 54.54 334.77 39 355.53 39c21.1 0 33.85 13.75 33.51 43.19zM355 48.33c-12.75 0-22.24 10.3-21.92 34.18l42.19-6.37c.04-19.95-7.64-27.81-20.27-27.81zM458.36 128.84V66.36c0-9.16-3.93-17.34-18-17.35-6.54 0-11.77 1.14-17.17 4.41v75.41h-14.38l.05-122.63L423.25.43v44.81c7.36-3.75 13.74-5.39 20.28-5.39 22.41 0 29.27 13.59 29.26 26v63zM525.09 130.5c-22.9 0-33.52-10-33.52-26 0-23.39 21.93-30.25 49.24-33v-5.4c0-13.58-8.17-17.51-19.45-17.51-8.51 0-16.36 3.1-21.26 5.55l-3.44-8.5a58.22 58.22 0 0 1 27-6.54c16.35 0 30.74 7 30.73 28.64v56.59c-6.74 3.72-17.04 6.17-29.3 6.17zm15.71-51.68c-22.24 2.77-35.49 7.51-35.5 25.34 0 12.76 7.85 18 20.93 18 5.56 0 11-1 14.56-2.94zM676.68 128.91V65.45c0-8.83-4.25-16.85-17-16.85a23.3 23.3 0 0 0-18.16 7.84v72.46h-14.38V64.78c0-9.82-6.54-16.36-19.29-16.36-7.2 0-11.12 1-15.87 2.93v77.54h-14.39V45.31c8-3.93 16.52-6.21 30.58-6.21 13.58 0 21.74 4.1 27 10.64 6.05-6.38 15.05-10.62 27.31-10.62 21.1 0 28.61 13.75 28.61 26v63.8z"/></g><path fill="#2f409a" d="M.23 154.21h690.81v6.24H.23z"/><g fill="#2f409a"><path d="M30.51 258.13h-8.2L1.42 187.68h10l13 49.56c1.12 4.41 2.05 9.22 2.05 9.22h.2s1-4.81 2.15-9.22l13.21-49.56H51zM66.75 234c1 12.49 6.86 18.63 16.8 18.63a27.32 27.32 0 0 0 13.61-3.17l2.36 5.94c-3.38 2.05-9.22 3.79-16.7 3.79-14.43 0-24.57-9.12-24.57-28.78 0-18.74 9.22-28.46 22.22-28.46 13.21 0 21.2 8.6 21 27zm13.42-26.22c-8 0-13.93 6.45-13.73 21.4l26.42-4c0-12.51-4.81-17.43-12.69-17.43zM144.88 258.13V219c0-5.74-2.46-10.86-11.26-10.86a19.36 19.36 0 0 0-10.75 2.77v47.2h-9V181l9-3.23v28.06a27.06 27.06 0 0 1 12.7-3.38c14 0 18.32 8.5 18.32 16.28v39.42zM173.55 197.61a5 5 0 1 1 5.22-4.91 5.14 5.14 0 0 1-5.22 4.91zm-4.5 60.52v-55.19h9v55.19zM212 259.16c-12.08 0-21-10.86-21-28.67 0-18.13 8.91-28.57 21.2-28.57 6.76 0 10.44 2.15 12.18 3.68l-2.15 5.22a12.88 12.88 0 0 0-8.19-2.66c-10 0-13.92 9.11-13.92 22 0 13.21 4.71 22.32 13.61 22.32a13.91 13.91 0 0 0 8.4-2.66l2.25 5.63c-2.19 1.97-6.29 3.71-12.38 3.71zM235.81 258.13v-76.65l9-3.73v80.38zM266.43 234c1 12.49 6.86 18.63 16.79 18.63a27.37 27.37 0 0 0 13.62-3.17l2.35 5.94c-3.37 2.05-9.21 3.79-16.69 3.79-14.43 0-24.57-9.12-24.57-28.78 0-18.74 9.21-28.46 22.22-28.46 13.21 0 21.2 8.6 21 27zm13.41-26.22c-8 0-13.92 6.45-13.72 21.4l26.42-4c0-12.51-4.81-17.43-12.7-17.43zM382.75 258.13L376.1 237h-24.17l-6.86 21.09h-8.6l23.86-70.45h8.39l23.76 70.45zm-16.38-53.45a48.76 48.76 0 0 1-2.05-8.5h-.21a59.14 59.14 0 0 1-2.14 8.5l-8.4 26.72h21zM421.26 259.26c-13.83 0-19.56-7-19.56-18v-38.3h9v38.6c0 6.45 3.48 11.37 11.05 11.37 4.31 0 7.39-.72 9.94-2.25v-47.74h9v51.92c-4.07 2.35-10.53 4.4-19.43 4.4zM474.09 259.16c-12.08 0-21-10.86-21-28.67 0-18.13 8.91-28.57 21.2-28.57 6.76 0 10.45 2.15 12.18 3.68l-2.14 5.22a12.91 12.91 0 0 0-8.2-2.66c-10 0-13.93 9.11-13.93 22 0 13.21 4.72 22.32 13.62 22.32a13.91 13.91 0 0 0 8.4-2.66l2.25 5.63c-2.13 1.97-6.23 3.71-12.38 3.71zM514.13 258.65c-10 0-13.72-7.17-13.72-13.93v-36.15h-6.35v-5.63h6.35v-11.35l9-4.11v15.46h9.63v5.63h-9.63v35.94c0 4.41 1.95 8 7 8a11.67 11.67 0 0 0 2.67-.41v5.73a15.93 15.93 0 0 1-4.95.82zM535.33 197.61a5 5 0 1 1 5.22-4.91 5.14 5.14 0 0 1-5.22 4.91zm-4.51 60.52v-55.19h9v55.19zM574.34 259.16c-15.05 0-21.6-12.39-21.6-28.57 0-16.49 6.65-28.67 21.5-28.67 15.16 0 21.61 12.18 21.61 28.67 0 16.18-6.56 28.57-21.51 28.57zm0-51.51c-10.54 0-12.59 11.77-12.59 22.94s2.25 22.32 12.59 22.32c10.55 0 12.5-11.26 12.5-22.32s-1.95-22.94-12.5-22.94zM639.27 258.13V218.5c0-5.11-2.16-10.75-11.58-10.75-5.12 0-7.57.72-10.44 1.95v48.43h-9v-52.32c4.91-2.36 11.36-3.89 20.17-3.89 15.36 0 19.86 8.5 19.86 16.38v39.83z"/></g><path d="M66.29 21.87a10.87 10.87 0 0 1-2-1.37c-2.81-6.27-9.55-13.85-21.84-13.91C28 6.51 19.51 17.41 19.44 29.85 19.29 59.86 73.38 56 73.17 97c-.12 22.22-17.1 33.78-38.82 33.3-13.09-.29-16.82-1.5-25.58-7.81a40.1 40.1 0 0 1-5-4.38 18.78 18.78 0 0 1-2.77-3.5 11.54 11.54 0 0 1-.77-1.11c.39-1 2.53-5.84 3.48-8.09.59-1.36.71-2.07.88-2 .94.65 1.85 1.2 1.91 1.31 7.71 13 16.57 18.36 27.89 18.67A23.79 23.79 0 0 0 58.73 99.7c.52-33.66-52.61-27-52.4-66.43C6.4 19.17 19.6.12 42.49.11c10.94 0 21.89 2 28.12 11.33 0 0-4.25 10.47-4.32 10.43zM687 210.91a5.37 5.37 0 0 1-.91-.59c-1.24-2.79-3.57-4.72-9-4.53-5.14.18-7.6 3.77-7.83 7.06-1 14.17 21.93 12.31 21.89 30.51 0 9.87-8.51 15.94-18.17 15.75-5.82-.1-7.48-.63-11.39-3.43a17.07 17.07 0 0 1-2.23-1.94 8.77 8.77 0 0 1-1.23-1.52c-.26-.35-.35-.49-.35-.49.18-.43 1.12-2.61 1.54-3.61.26-.6.31-.92.39-.86.42.28.82.52.85.57 3.44 5.75 7.39 8.14 12.43 8.26 5.62.14 9.44-4.44 9.52-10.73.18-15-22.17-12.47-22.12-29.3 0-6.26 5.86-14.74 16-14.77 4.86 0 9.73.83 12.51 5 .01-.01-1.9 4.64-1.9 4.62z" fill="#2f409a"/></svg>